<?xml version="1.0" encoding="UTF-8"?>
<!DOCTYPE svg PUBLIC "-//W3C//DTD SVG 1.1//EN" "http://www.w3.org/Graphics/SVG/1.1/DTD/svg11.dtd">
<svg xmlns="http://www.w3.org/2000/svg" version="1.1" width="1158px" height="1158px" style="shape-rendering:geometricPrecision; text-rendering:geometricPrecision; image-rendering:optimizeQuality; fill-rule:evenodd; clip-rule:evenodd" xmlns:xlink="http://www.w3.org/1999/xlink">
    <g transform="translate(0,82)">
<g><path style="opacity:0.999" fill="#111b03" d="M 930.5,844.5 C 929.058,843.18 928.392,841.514 928.5,839.5C 921.747,838.083 918.08,840.749 917.5,847.5C 915.496,851.354 914.496,855.52 914.5,860C 915.136,868.286 916.469,876.453 918.5,884.5C 917.544,893.665 915.044,902.332 911,910.5C 904.127,917.705 897.627,925.205 891.5,933C 882.568,937.155 873.234,938.489 863.5,937C 856.776,938.061 851.276,941.228 847,946.5C 843.748,951.334 840.748,956.334 838,961.5C 833.462,967.852 827.296,971.185 819.5,971.5C 813.851,970.687 808.185,970.021 802.5,969.5C 793.876,971.843 785.876,970.677 778.5,966C 771.539,957.37 764.205,949.037 756.5,941C 754.043,939.438 751.376,938.438 748.5,938C 733.74,937.464 719.407,934.797 705.5,930C 688.703,914.558 681.203,895.392 683,872.5C 685.794,862.993 687.794,853.326 689,843.5C 692.726,838.772 696.059,833.772 699,828.5C 703.035,814.859 706.202,801.025 708.5,787C 707.699,775.919 701.699,770.252 690.5,770C 659.286,769.84 628.119,768.673 597,766.5C 588.349,766.823 583.016,771.156 581,779.5C 578.086,794.571 579.42,809.238 585,823.5C 591.078,835.99 597.411,848.323 604,860.5C 613.55,886.871 607.716,909.371 586.5,928C 583.003,930.583 579.336,932.916 575.5,935C 566.812,935.745 558.145,935.579 549.5,934.5C 543.102,934.784 537.602,937.117 533,941.5C 528.754,946.991 524.754,952.658 521,958.5C 515.829,965.497 508.996,969.497 500.5,970.5C 490.17,969.6 479.837,969.434 469.5,970C 456.712,965.879 446.879,958.046 440,946.5C 437.795,943.96 435.295,941.793 432.5,940C 425.26,938.19 417.927,936.856 410.5,936C 398.371,929.52 387.204,921.687 377,912.5C 373.094,902.541 370.927,892.207 370.5,881.5C 372.123,865.478 373.957,849.478 376,833.5C 377.437,821.657 375.771,810.323 371,799.5C 369.143,796.8 366.643,795.134 363.5,794.5C 362.894,791.595 361.061,789.929 358,789.5C 355.672,789.999 354.172,791.332 353.5,793.5C 351.141,794.176 348.808,795.009 346.5,796C 342.2,801.301 337.534,806.301 332.5,811C 324.254,814.368 316.754,818.868 310,824.5C 308.438,826.957 307.438,829.624 307,832.5C 310.395,861.067 299.229,881.567 273.5,894C 250.475,904.105 231.808,898.771 217.5,878C 210.441,873.185 202.607,871.019 194,871.5C 171.455,877.285 152.455,871.619 137,854.5C 131.806,845.446 127.139,836.112 123,826.5C 118.093,819.646 111.593,817.48 103.5,820C 98.6587,822.921 93.6587,825.588 88.5,828C 83.2375,829.439 77.9042,829.772 72.5,829C 48.8474,824.671 33.3474,811.171 26,788.5C 23.4436,775.159 26.4436,763.159 35,752.5C 45.1371,743.364 54.9705,733.864 64.5,724C 72.8978,718.937 80.7311,713.104 88,706.5C 93.3626,697.987 93.6959,689.32 89,680.5C 74.8544,667.695 62.1877,653.695 51,638.5C 17.4408,580.086 23.6074,526.253 69.5,477C 86.6312,462.941 106.298,454.608 128.5,452C 142.178,451.61 155.845,451.61 169.5,452C 174.151,451.258 177.984,449.092 181,445.5C 189.078,429.011 197.411,412.677 206,396.5C 218.456,376.783 232.956,358.616 249.5,342C 275.586,321.251 301.086,299.751 326,277.5C 331.667,270.5 337.333,263.5 343,256.5C 363.588,223.652 384.921,191.319 407,159.5C 409.455,155.469 411.121,151.136 412,146.5C 415.036,95.5565 438.869,58.0565 483.5,34C 537.594,13.8173 584.927,24.1507 625.5,65C 627.717,66.2754 630.051,67.2754 632.5,68C 656.309,69.9776 680.143,71.811 704,73.5C 711.407,73.1421 718.24,70.9755 724.5,67C 732.204,59.6274 740.204,52.6274 748.5,46C 783.684,24.1537 819.684,22.8203 856.5,42C 884.513,61.8323 900.346,88.999 904,123.5C 904.333,134.833 904.667,146.167 905,157.5C 905.803,160.244 906.803,162.911 908,165.5C 924.946,181.113 941.279,197.446 957,214.5C 968.263,227.762 977.93,242.095 986,257.5C 986.226,261.887 986.726,266.221 987.5,270.5C 983.356,284.038 979.523,297.704 976,311.5C 971.781,322.948 965.781,333.281 958,342.5C 954.343,351.156 949.676,359.156 944,366.5C 935.333,374.5 926.667,382.5 918,390.5C 913.667,396.167 909.333,401.833 905,407.5C 896.218,415.276 888.551,423.942 882,433.5C 881.042,438.123 880.375,442.79 880,447.5C 869.299,464.511 872.132,478.678 888.5,490C 894.05,494.025 900.216,496.525 907,497.5C 920.712,493.948 934.545,490.781 948.5,488C 1003.85,478.773 1047.02,497.273 1078,543.5C 1097.94,581.21 1097.27,618.543 1076,655.5C 1071.09,663.079 1065.42,670.079 1059,676.5C 1051.04,688.024 1052.21,698.524 1062.5,708C 1072.16,712.828 1081.49,718.161 1090.5,724C 1098.67,730.833 1106.83,737.667 1115,744.5C 1123.78,754.726 1129.95,766.392 1133.5,779.5C 1128.99,796.037 1120.32,809.87 1107.5,821C 1097.72,827.779 1087.05,829.779 1075.5,827C 1066.99,823.163 1058.16,820.33 1049,818.5C 1043,818.832 1038.34,821.498 1035,826.5C 1030.97,837.555 1025.64,847.888 1019,857.5C 1003.93,872.65 986.1,877.15 965.5,871C 960.902,868.73 956.569,866.063 952.5,863C 948.2,857.699 943.534,852.699 938.5,848C 935.924,846.544 933.258,845.377 930.5,844.5 Z"/></g>
<g><path style="opacity:1" fill="#08a963" d="M 652.5,116.5 C 655.974,117.525 659.64,118.192 663.5,118.5C 705.666,123.403 746,134.236 784.5,151C 796.541,157.021 808.541,163.021 820.5,169C 828.195,174.042 835.862,179.042 843.5,184C 847.199,187.507 850.866,191.007 854.5,194.5C 842.702,210.514 845.702,222.681 863.5,231C 867.211,231.825 870.878,231.659 874.5,230.5C 880.883,227.451 885.55,222.784 888.5,216.5C 895.876,224.209 903.876,231.209 912.5,237.5C 912.5,238.5 912.5,239.5 912.5,240.5C 913.552,240.351 914.552,240.517 915.5,241C 924.747,250.079 933.08,259.912 940.5,270.5C 925.449,274.167 910.115,276.834 894.5,278.5C 890.486,278.334 886.486,278.501 882.5,279C 881.584,279.278 880.918,279.778 880.5,280.5C 878.167,280.5 875.833,280.5 873.5,280.5C 867.322,280.844 861.322,281.511 855.5,282.5C 847.52,283.387 839.52,284.053 831.5,284.5C 816.296,284.108 801.296,284.775 786.5,286.5C 783.5,286.5 780.5,286.5 777.5,286.5C 733.496,286.554 689.496,286.22 645.5,285.5C 632.796,285.775 620.13,285.442 607.5,284.5C 602.731,283.111 597.731,282.444 592.5,282.5C 579.22,283.029 566.22,282.029 553.5,279.5C 544.364,277.985 535.031,276.985 525.5,276.5C 517.696,275.016 509.696,274.016 501.5,273.5C 490.114,272.457 478.781,270.957 467.5,269C 465.5,268.333 463.5,267.667 461.5,267C 457.587,265.091 454.254,262.424 451.5,259C 450.552,258.517 449.552,258.351 448.5,258.5C 448.5,257.5 448.5,256.5 448.5,255.5C 443.758,252.945 439.092,250.112 434.5,247C 427.755,245.298 421.922,246.798 417,251.5C 416.099,254.071 414.766,256.404 413,258.5C 412.333,264.167 412.333,269.833 413,275.5C 422.732,288.241 434.565,298.407 448.5,306C 455.282,308.54 462.282,309.707 469.5,309.5C 471.102,311.074 473.102,311.741 475.5,311.5C 480.411,312.798 485.411,314.131 490.5,315.5C 510.547,356.687 534.047,396.021 561,433.5C 561.817,436.964 561.483,440.298 560,443.5C 546.63,460.998 534.797,479.331 524.5,498.5C 521.404,501.958 519.071,505.958 517.5,510.5C 510.213,523.68 503.88,537.347 498.5,551.5C 497.08,553.887 495.747,556.22 494.5,558.5C 490.751,556.464 486.751,554.631 482.5,553C 474.362,536.197 462.362,532.864 446.5,543C 435.782,545.872 425.448,549.539 415.5,554C 401.515,558.203 387.515,562.536 373.5,567C 367.512,570.409 366.012,575.242 369,581.5C 371.794,585.445 374.294,589.445 376.5,593.5C 381.85,596.528 387.184,599.528 392.5,602.5C 403.741,624.523 415.741,646.19 428.5,667.5C 437.836,682.171 447.669,696.504 458,710.5C 460.869,713.704 464.035,716.537 467.5,719C 477.001,723.037 486.334,727.37 495.5,732C 502.447,737.452 509.78,742.285 517.5,746.5C 517.5,747.5 517.5,748.5 517.5,749.5C 519.179,749.285 520.179,749.952 520.5,751.5C 521.502,753.011 522.169,754.678 522.5,756.5C 523.5,756.5 524.5,756.5 525.5,756.5C 525.774,758.981 527.107,760.647 529.5,761.5C 532.226,764.596 534.726,767.93 537,771.5C 540.602,777.813 543.102,784.48 544.5,791.5C 545.588,796.603 546.588,801.603 547.5,806.5C 555.381,829.708 563.714,852.708 572.5,875.5C 573.254,880.463 573.587,885.463 573.5,890.5C 568.378,901.049 560.045,904.549 548.5,901C 543.99,899.157 540.823,895.99 539,891.5C 538.831,878.993 538.331,866.66 537.5,854.5C 537.785,851.171 537.118,848.171 535.5,845.5C 535.917,841.183 535.25,837.183 533.5,833.5C 531.572,828.747 530.072,823.747 529,818.5C 527.148,813.977 524.482,809.977 521,806.5C 520.517,805.552 520.351,804.552 520.5,803.5C 516.332,801.279 511.832,799.946 507,799.5C 503.02,799.207 499.854,800.54 497.5,803.5C 496.883,803.611 496.383,803.944 496,804.5C 495.103,815.382 495.603,826.049 497.5,836.5C 497.788,846.677 498.455,856.677 499.5,866.5C 499.294,873.396 499.961,880.063 501.5,886.5C 502.35,893.799 502.683,901.132 502.5,908.5C 502.5,915.5 502.5,922.5 502.5,929.5C 500.049,936.759 494.883,940.425 487,940.5C 479.017,940.52 473.683,936.854 471,929.5C 470.184,924.316 470.35,919.316 471.5,914.5C 473.057,908.739 473.724,902.739 473.5,896.5C 475.626,881.672 475.96,866.672 474.5,851.5C 474.785,848.171 474.118,845.171 472.5,842.5C 472.917,838.183 472.25,834.183 470.5,830.5C 468.684,821.232 465.184,812.565 460,804.5C 457.517,801.511 454.35,800.178 450.5,800.5C 447.696,799.362 444.696,799.195 441.5,800C 439.347,800.099 437.681,800.933 436.5,802.5C 435.488,803.872 434.488,805.205 433.5,806.5C 432.842,807.793 432.508,809.293 432.5,811C 433.037,818.044 434.037,824.877 435.5,831.5C 436.434,839.111 436.767,846.778 436.5,854.5C 436.294,861.396 436.961,868.063 438.5,874.5C 442.515,886.917 438.849,896.084 427.5,902C 419.062,904.263 412.229,902.096 407,895.5C 406.064,891.886 405.564,888.22 405.5,884.5C 406.617,880.705 407.283,876.705 407.5,872.5C 415.058,839.195 412.558,806.862 400,775.5C 396.298,768.232 392.131,761.232 387.5,754.5C 387.709,753.078 388.209,751.745 389,750.5C 392.439,746.088 395.939,741.755 399.5,737.5C 400.661,733.205 400.828,728.871 400,724.5C 345.371,676.566 304.538,618.899 277.5,551.5C 285.528,542.985 294.861,536.151 305.5,531C 326.124,522.853 346.79,515.019 367.5,507.5C 370.917,507.977 373.584,506.977 375.5,504.5C 394.421,497.909 413.088,490.409 431.5,482C 435.968,479.597 440.301,476.93 444.5,474C 448.241,470.484 451.908,466.984 455.5,463.5C 458.851,461.113 460.517,457.78 460.5,453.5C 461.795,448.276 461.628,442.943 460,437.5C 459.292,436.619 458.458,435.953 457.5,435.5C 456.596,434.791 456.263,433.791 456.5,432.5C 450.332,428.358 443.665,427.525 436.5,430C 427.777,436.025 418.777,441.525 409.5,446.5C 406.509,446.166 404.176,447.166 402.5,449.5C 401.07,450.537 399.403,451.204 397.5,451.5C 394.728,451.759 392.395,452.759 390.5,454.5C 387.846,455.715 385.18,456.715 382.5,457.5C 379.728,457.759 377.395,458.759 375.5,460.5C 360.859,466.596 346.192,472.263 331.5,477.5C 328.23,478.389 325.23,479.723 322.5,481.5C 315.684,484.358 308.684,487.024 301.5,489.5C 315.217,473.049 330.05,457.716 346,443.5C 381.253,404.122 399.919,357.788 402,304.5C 398.257,300.741 393.757,299.574 388.5,301C 384.514,301.485 381.181,303.152 378.5,306C 358.382,314.72 339.716,325.554 322.5,338.5C 319.611,339.389 316.945,340.722 314.5,342.5C 313.614,343.325 313.281,344.325 313.5,345.5C 311.099,346.049 308.765,346.882 306.5,348C 296.268,356.463 285.601,364.463 274.5,372C 268.61,378.06 262.277,383.56 255.5,388.5C 254.056,389.981 253.389,389.648 253.5,387.5C 259.17,378.649 265.837,370.483 273.5,363C 300.698,342.472 326.031,319.805 349.5,295C 350.448,294.517 351.448,294.351 352.5,294.5C 354.033,290.128 356.867,286.794 361,284.5C 362.939,281.053 365.106,277.719 367.5,274.5C 368.325,273.614 369.325,273.281 370.5,273.5C 371.774,269.619 373.607,265.952 376,262.5C 381.044,257.323 385.378,251.656 389,245.5C 404.05,219.114 420.717,193.78 439,169.5C 440.011,168.663 441.178,168.33 442.5,168.5C 442.12,166.302 442.787,164.635 444.5,163.5C 445.33,153.341 445.83,143.008 446,132.5C 447.569,128.297 448.402,123.964 448.5,119.5C 448.328,118.508 448.662,117.842 449.5,117.5C 451.28,116.01 451.946,114.01 451.5,111.5C 454.479,103.389 458.313,95.7221 463,88.5C 464.011,87.6634 465.178,87.33 466.5,87.5C 466.383,85.5165 467.05,83.8498 468.5,82.5C 494.57,55.3274 525.903,47.1607 562.5,58C 568.275,61.439 574.275,64.439 580.5,67C 597.684,80.427 614.684,94.0937 631.5,108C 637.771,112.464 644.771,115.297 652.5,116.5 Z"/></g>
<g><path style="opacity:1" fill="#111b04" d="M 592.5,96.5 C 593.298,98.9663 594.631,100.966 596.5,102.5C 596.263,103.791 596.596,104.791 597.5,105.5C 597.054,108.01 597.72,110.01 599.5,111.5C 599.99,114.655 600.656,117.655 601.5,120.5C 602.276,128.475 602.61,136.475 602.5,144.5C 598.636,173.183 583.969,194.183 558.5,207.5C 556.079,208.891 553.412,209.725 550.5,210C 549.619,210.708 548.953,211.542 548.5,212.5C 503.803,222.078 472.47,206.078 454.5,164.5C 454.874,160.353 453.874,156.686 451.5,153.5C 447.368,117.768 460.034,89.935 489.5,70C 527.727,51.277 560.893,57.777 589,89.5C 590.032,91.9944 591.198,94.3277 592.5,96.5 Z"/></g>
<g><path style="opacity:1" fill="#0f9e5f" d="M 819.5,90.5 C 818.732,91.2625 818.232,92.2625 818,93.5C 817.333,100.5 817.333,107.5 818,114.5C 818.232,115.737 818.732,116.737 819.5,117.5C 819.5,125.5 819.5,133.5 819.5,141.5C 791.383,131.471 763.383,121.138 735.5,110.5C 752.779,68.8539 783.779,52.3539 828.5,61C 830.325,62.4659 830.825,64.2992 830,66.5C 827.658,70.1725 825.324,73.8392 823,77.5C 821.338,81.728 820.171,86.0613 819.5,90.5 Z"/></g>
<g><path style="opacity:1" fill="#e8f7ed" d="M 533.5,123.5 C 533.204,121.597 532.537,119.93 531.5,118.5C 523.516,109.359 513.516,106.192 501.5,109C 497.489,110.442 493.822,112.442 490.5,115C 484.92,116.261 483.087,114.094 485,108.5C 502.4,86.1267 524.233,80.2934 550.5,91C 566.792,100.981 573.626,115.481 571,134.5C 561.73,148.882 550.897,150.215 538.5,138.5C 536.516,133.54 534.85,128.54 533.5,123.5 Z"/></g>
<g><path style="opacity:1" fill="#e2f1e6" d="M 867.5,96.5 C 867.054,99.0101 867.72,101.01 869.5,102.5C 869.676,105.727 870.343,108.727 871.5,111.5C 873.438,119.377 873.938,127.377 873,135.5C 871.737,137.797 869.903,138.63 867.5,138C 851.018,124.566 847.185,108.066 856,88.5C 858.064,87.4086 860.231,87.2419 862.5,88C 863.892,91.081 865.559,93.9144 867.5,96.5 Z"/></g>
<g><path style="opacity:1" fill="#0f572b" d="M 592.5,96.5 C 594.738,97.8527 596.071,99.8527 596.5,102.5C 594.631,100.966 593.298,98.9663 592.5,96.5 Z"/></g>
<g><path style="opacity:1" fill="#11582e" d="M 819.5,90.5 C 818.403,99.4844 818.403,108.484 819.5,117.5C 818.732,116.737 818.232,115.737 818,114.5C 817.333,107.5 817.333,100.5 818,93.5C 818.232,92.2625 818.732,91.2625 819.5,90.5 Z"/></g>
<g><path style="opacity:1" fill="#798674" d="M 867.5,96.5 C 868.458,98.3024 869.125,100.302 869.5,102.5C 867.72,101.01 867.054,99.0101 867.5,96.5 Z"/></g>
<g><path style="opacity:1" fill="#c7f5d7" d="M 735.5,110.5 C 763.383,121.138 791.383,131.471 819.5,141.5C 851.418,162.948 882.751,185.115 913.5,208C 929.176,222.746 942.676,239.246 954,257.5C 954.784,260.76 954.617,263.927 953.5,267C 949.008,267.891 944.674,269.058 940.5,270.5C 933.08,259.912 924.747,250.079 915.5,241C 914.552,240.517 913.552,240.351 912.5,240.5C 912.5,239.5 912.5,238.5 912.5,237.5C 903.876,231.209 895.876,224.209 888.5,216.5C 889.882,200.925 882.715,192.925 867,192.5C 862.704,192.483 858.537,193.149 854.5,194.5C 850.866,191.007 847.199,187.507 843.5,184C 835.862,179.042 828.195,174.042 820.5,169C 808.541,163.021 796.541,157.021 784.5,151C 746,134.236 705.666,123.403 663.5,118.5C 663.011,117.005 662.345,115.671 661.5,114.5C 660.783,112.047 659.616,109.713 658,107.5C 657.333,105.833 657.333,104.167 658,102.5C 661.081,101.854 664.248,101.521 667.5,101.5C 690.491,102.333 713.157,105.333 735.5,110.5 Z"/></g>
<g><path style="opacity:1" fill="#768271" d="M 869.5,102.5 C 871.118,105.171 871.785,108.171 871.5,111.5C 870.343,108.727 869.676,105.727 869.5,102.5 Z"/></g>
<g><path style="opacity:1" fill="#114922" d="M 597.5,105.5 C 598.738,107.214 599.405,109.214 599.5,111.5C 597.72,110.01 597.054,108.01 597.5,105.5 Z"/></g>
<g><path style="opacity:1" fill="#0e5b2e" d="M 599.5,111.5 C 600.117,111.611 600.617,111.944 601,112.5C 601.497,115.146 601.664,117.813 601.5,120.5C 600.656,117.655 599.99,114.655 599.5,111.5 Z"/></g>
<g><path style="opacity:1" fill="#0e6737" d="M 451.5,111.5 C 451.946,114.01 451.28,116.01 449.5,117.5C 449.595,115.214 450.262,113.214 451.5,111.5 Z"/></g>
<g><path style="opacity:1" fill="#1c4221" d="M 661.5,114.5 C 662.345,115.671 663.011,117.005 663.5,118.5C 659.64,118.192 655.974,117.525 652.5,116.5C 656.012,117.055 659.012,116.388 661.5,114.5 Z"/></g>
<g><path style="opacity:1" fill="#687561" d="M 531.5,118.5 C 532.537,119.93 533.204,121.597 533.5,123.5C 531.787,122.365 531.12,120.698 531.5,118.5 Z"/></g>
<g><path style="opacity:1" fill="#0f431e" d="M 601.5,120.5 C 602.268,121.263 602.768,122.263 603,123.5C 603.821,130.679 603.655,137.679 602.5,144.5C 602.61,136.475 602.276,128.475 601.5,120.5 Z"/></g>
<g><path style="opacity:1" fill="#0e6232" d="M 451.5,153.5 C 453.874,156.686 454.874,160.353 454.5,164.5C 453.336,160.989 452.336,157.323 451.5,153.5 Z"/></g>
<g><path style="opacity:1" fill="#0d5f32" d="M 448.5,119.5 C 448.402,123.964 447.569,128.297 446,132.5C 445.83,143.008 445.33,153.341 444.5,163.5C 444.333,152.828 444.5,142.161 445,131.5C 446.109,127.353 447.276,123.353 448.5,119.5 Z"/></g>
<g><path style="opacity:1" fill="#111d05" d="M 748.5,222.5 C 745.949,216.848 744.949,210.848 745.5,204.5C 750.624,193.449 759.29,189.616 771.5,193C 787.558,199.949 791.391,211.116 783,226.5C 770.175,235.375 758.675,234.042 748.5,222.5 Z"/></g>
<g><path style="opacity:1" fill="#121d06" d="M 888.5,216.5 C 885.55,222.784 880.883,227.451 874.5,230.5C 870.878,231.659 867.211,231.825 863.5,231C 845.702,222.681 842.702,210.514 854.5,194.5C 858.537,193.149 862.704,192.483 867,192.5C 882.715,192.925 889.882,200.925 888.5,216.5 Z"/></g>
<g><path style="opacity:1" fill="#0d6031" d="M 745.5,204.5 C 744.949,210.848 745.949,216.848 748.5,222.5C 746.766,220.91 745.6,218.91 745,216.5C 744.188,212.311 744.355,208.311 745.5,204.5 Z"/></g>
<g><path style="opacity:1" fill="#10552a" d="M 558.5,207.5 C 558.047,208.458 557.381,209.292 556.5,210C 553.588,210.275 550.921,211.109 548.5,212.5C 548.953,211.542 549.619,210.708 550.5,210C 553.412,209.725 556.079,208.891 558.5,207.5 Z"/></g>
<g><path style="opacity:1" fill="#0d743f" d="M 501.5,273.5 C 509.696,274.016 517.696,275.016 525.5,276.5C 517.206,276.779 509.206,275.779 501.5,273.5 Z"/></g>
<g><path style="opacity:1" fill="#0c7f47" d="M 525.5,276.5 C 535.031,276.985 544.364,277.985 553.5,279.5C 543.913,279.542 534.58,278.542 525.5,276.5 Z"/></g>
<g><path style="opacity:1" fill="#0d723e" d="M 894.5,278.5 C 890.005,279.422 885.338,280.089 880.5,280.5C 880.918,279.778 881.584,279.278 882.5,279C 886.486,278.501 890.486,278.334 894.5,278.5 Z"/></g>
<g><path style="opacity:1" fill="#0c743f" d="M 873.5,280.5 C 872.737,281.268 871.737,281.768 870.5,282C 865.511,282.499 860.511,282.666 855.5,282.5C 861.322,281.511 867.322,280.844 873.5,280.5 Z"/></g>
<g><path style="opacity:1" fill="#0e5c2f" d="M 592.5,282.5 C 597.731,282.444 602.731,283.111 607.5,284.5C 602.269,284.556 597.269,283.889 592.5,282.5 Z"/></g>
<g><path style="opacity:1" fill="#0d6e3b" d="M 831.5,284.5 C 816.671,285.496 801.671,286.163 786.5,286.5C 801.296,284.775 816.296,284.108 831.5,284.5 Z"/></g>
<g><path style="opacity:1" fill="#0c7f46" d="M 645.5,285.5 C 689.496,286.22 733.496,286.554 777.5,286.5C 738.669,287.665 699.669,287.831 660.5,287C 655.316,286.826 650.316,286.326 645.5,285.5 Z"/></g>
<g><path style="opacity:1" fill="#026762" d="M 301.5,489.5 C 284.368,496.078 268.368,504.911 253.5,516C 252.131,517.719 251.131,519.552 250.5,521.5C 250.762,520.022 250.429,518.689 249.5,517.5C 233.148,509.486 216.815,501.82 200.5,494.5C 202.167,494.5 203.833,494.5 205.5,494.5C 208.952,470.665 215.118,447.665 224,425.5C 231.775,411.226 241.608,398.56 253.5,387.5C 253.389,389.648 254.056,389.981 255.5,388.5C 262.277,383.56 268.61,378.06 274.5,372C 285.601,364.463 296.268,356.463 306.5,348C 308.765,346.882 311.099,346.049 313.5,345.5C 313.281,344.325 313.614,343.325 314.5,342.5C 316.945,340.722 319.611,339.389 322.5,338.5C 339.716,325.554 358.382,314.72 378.5,306C 381.181,303.152 384.514,301.485 388.5,301C 393.757,299.574 398.257,300.741 402,304.5C 399.919,357.788 381.253,404.122 346,443.5C 330.05,457.716 315.217,473.049 301.5,489.5 Z"/></g>
<g><path style="opacity:1" fill="#0f4e26" d="M 469.5,309.5 C 471.898,309.259 473.898,309.926 475.5,311.5C 473.102,311.741 471.102,311.074 469.5,309.5 Z"/></g>
<g><path style="opacity:1" fill="#5e6956" d="M 938.5,314.5 C 934.821,314.724 931.154,315.058 927.5,315.5C 931.044,313.431 934.71,313.098 938.5,314.5 Z"/></g>
<g><path style="opacity:1" fill="#e7f8ea" d="M 938.5,314.5 C 939.553,317.614 938.887,320.447 936.5,323C 920.823,348.592 901.157,370.425 877.5,388.5C 876.29,388.932 875.29,389.599 874.5,390.5C 867.679,396.333 860.345,401.333 852.5,405.5C 850.456,406.508 848.456,407.508 846.5,408.5C 846.5,409.167 846.167,409.5 845.5,409.5C 843.18,411.226 840.513,411.893 837.5,411.5C 836.007,410.688 835.34,409.355 835.5,407.5C 835.833,406.5 836.167,405.5 836.5,404.5C 872.442,382.225 901.775,353.225 924.5,317.5C 925.5,316.833 926.5,316.167 927.5,315.5C 931.154,315.058 934.821,314.724 938.5,314.5 Z"/></g>
<g><path style="opacity:1" fill="#3b6819" d="M 492.5,315.5 C 501.994,316.313 511.327,317.313 520.5,318.5C 510.876,318.908 501.543,317.908 492.5,315.5 Z"/></g>
<g><path style="opacity:1" fill="#82ec3e" d="M 490.5,315.5 C 491.167,315.5 491.833,315.5 492.5,315.5C 501.543,317.908 510.876,318.908 520.5,318.5C 524.336,319.378 528.336,320.044 532.5,320.5C 543.686,321.496 555.019,322.496 566.5,323.5C 580.852,324.053 595.186,325.22 609.5,327C 631.512,327.825 653.512,328.658 675.5,329.5C 714.511,330.87 753.511,330.537 792.5,328.5C 796.548,328.605 800.548,328.272 804.5,327.5C 826.752,327.809 848.752,326.476 870.5,323.5C 874.5,323.167 878.5,322.833 882.5,322.5C 888.493,322.001 894.493,321.501 900.5,321C 901.737,320.768 902.737,320.268 903.5,319.5C 904.5,319.5 905.5,319.5 906.5,319.5C 911.049,319.376 915.382,318.709 919.5,317.5C 921.167,317.5 922.833,317.5 924.5,317.5C 901.775,353.225 872.442,382.225 836.5,404.5C 836.167,405.5 835.833,406.5 835.5,407.5C 835.34,409.355 836.007,410.688 837.5,411.5C 838.209,412.404 839.209,412.737 840.5,412.5C 831.143,415.665 821.477,418.165 811.5,420C 806.371,423.37 800.705,425.37 794.5,426C 785.609,430.898 776.276,434.898 766.5,438C 747.567,443.492 728.233,447.492 708.5,450C 686.8,451.7 665.133,453.7 643.5,456C 636.262,461.044 633.762,467.878 636,476.5C 638.08,480.914 640.58,485.081 643.5,489C 648.732,492.773 653.732,496.773 658.5,501C 664.215,502.091 669.549,504.091 674.5,507C 696.247,507.71 717.913,506.71 739.5,504C 766.888,491.65 794.221,479.484 821.5,467.5C 819.949,469.913 819.283,472.579 819.5,475.5C 815.422,488.153 812.422,501.153 810.5,514.5C 808.511,518.497 807.511,522.83 807.5,527.5C 807.567,528.959 807.234,530.292 806.5,531.5C 804.882,534.171 804.215,537.171 804.5,540.5C 800.566,559.751 795.9,578.751 790.5,597.5C 788.32,601.885 786.653,606.552 785.5,611.5C 780.247,624.128 774.247,636.461 767.5,648.5C 766.616,643.187 766.45,637.854 767,632.5C 762.51,631.254 758.01,631.42 753.5,633C 724.97,648.209 694.303,655.376 661.5,654.5C 622.627,653.593 587.293,642.427 555.5,621C 542.691,608.294 528.024,598.461 511.5,591.5C 511.027,590.094 510.027,589.427 508.5,589.5C 501.5,584.5 495.5,578.5 490.5,571.5C 489.535,566.317 490.868,561.984 494.5,558.5C 495.747,556.22 497.08,553.887 498.5,551.5C 503.88,537.347 510.213,523.68 517.5,510.5C 518.376,510.631 519.043,510.298 519.5,509.5C 521.635,506.036 523.301,502.37 524.5,498.5C 534.797,479.331 546.63,460.998 560,443.5C 561.483,440.298 561.817,436.964 561,433.5C 534.047,396.021 510.547,356.687 490.5,315.5 Z"/></g>
<g><path style="opacity:1" fill="#3f701b" d="M 919.5,317.5 C 915.382,318.709 911.049,319.376 906.5,319.5C 907.263,318.732 908.263,318.232 909.5,318C 912.817,317.502 916.15,317.335 919.5,317.5 Z"/></g>
<g><path style="opacity:1" fill="#40711b" d="M 532.5,320.5 C 544.107,320.103 555.44,321.103 566.5,323.5C 555.019,322.496 543.686,321.496 532.5,320.5 Z"/></g>
<g><path style="opacity:1" fill="#3f701b" d="M 903.5,319.5 C 902.737,320.268 901.737,320.768 900.5,321C 894.493,321.501 888.493,322.001 882.5,322.5C 883.263,321.732 884.263,321.232 885.5,321C 891.507,320.499 897.507,319.999 903.5,319.5 Z"/></g>
<g><path style="opacity:1" fill="#3a6618" d="M 870.5,323.5 C 848.752,326.476 826.752,327.809 804.5,327.5C 826.353,326.182 848.353,324.849 870.5,323.5 Z"/></g>
<g><path style="opacity:1" fill="#42761d" d="M 792.5,328.5 C 753.511,330.537 714.511,330.87 675.5,329.5C 714.503,329.417 753.503,329.083 792.5,328.5 Z"/></g>
<g><path style="opacity:1" fill="#6a7663" d="M 877.5,388.5 C 877.179,390.048 876.179,390.715 874.5,390.5C 875.29,389.599 876.29,388.932 877.5,388.5 Z"/></g>
<g><path style="opacity:1" fill="#606c58" d="M 852.5,405.5 C 851.313,407.975 849.313,408.975 846.5,408.5C 848.456,407.508 850.456,406.508 852.5,405.5 Z"/></g>
<g><path style="opacity:1" fill="#b0e197" d="M 845.5,409.5 C 845.443,410.609 845.11,411.609 844.5,412.5C 843.167,412.5 841.833,412.5 840.5,412.5C 839.209,412.737 838.209,412.404 837.5,411.5C 840.513,411.893 843.18,411.226 845.5,409.5 Z"/></g>
<g><path style="opacity:1" fill="#4ebb01" d="M 840.5,412.5 C 841.833,412.5 843.167,412.5 844.5,412.5C 844.591,424.508 844.925,436.508 845.5,448.5C 837.461,454.844 829.461,461.178 821.5,467.5C 794.221,479.484 766.888,491.65 739.5,504C 717.913,506.71 696.247,507.71 674.5,507C 669.549,504.091 664.215,502.091 658.5,501C 653.732,496.773 648.732,492.773 643.5,489C 640.58,485.081 638.08,480.914 636,476.5C 633.762,467.878 636.262,461.044 643.5,456C 665.133,453.7 686.8,451.7 708.5,450C 728.233,447.492 747.567,443.492 766.5,438C 776.276,434.898 785.609,430.898 794.5,426C 800.705,425.37 806.371,423.37 811.5,420C 821.477,418.165 831.143,415.665 840.5,412.5 Z"/></g>
<g><path style="opacity:1" fill="#103918" d="M 457.5,435.5 C 458.458,435.953 459.292,436.619 460,437.5C 461.628,442.943 461.795,448.276 460.5,453.5C 461.051,447.153 460.051,441.153 457.5,435.5 Z"/></g>
<g><path style="opacity:1" fill="#0e5f31" d="M 409.5,446.5 C 407.351,447.736 405.018,448.736 402.5,449.5C 404.176,447.166 406.509,446.166 409.5,446.5 Z"/></g>
<g><path style="opacity:1" fill="#c9f7d7" d="M 845.5,448.5 C 845.5,449.167 845.5,449.833 845.5,450.5C 844.011,454.236 843.344,458.236 843.5,462.5C 843.5,463.167 843.5,463.833 843.5,464.5C 840.982,469.061 839.982,474.061 840.5,479.5C 839.076,481.515 838.41,483.848 838.5,486.5C 836.8,493.314 835.467,500.314 834.5,507.5C 834.5,508.167 834.5,508.833 834.5,509.5C 832.926,511.102 832.259,513.102 832.5,515.5C 831.419,518.627 830.753,521.96 830.5,525.5C 828.882,528.171 828.215,531.171 828.5,534.5C 828.5,535.167 828.5,535.833 828.5,536.5C 826.034,540.018 825.034,544.018 825.5,548.5C 823.124,552.405 822.124,556.739 822.5,561.5C 820.308,565.098 819.308,569.098 819.5,573.5C 815.694,587.343 811.361,601.01 806.5,614.5C 804.921,617.3 803.588,620.3 802.5,623.5C 801.463,624.93 800.796,626.597 800.5,628.5C 798.896,629.287 798.229,630.62 798.5,632.5C 797.833,633.833 797.167,635.167 796.5,636.5C 794.759,638.924 793.425,641.59 792.5,644.5C 787.572,652.118 782.572,659.785 777.5,667.5C 775.468,668.048 774.468,669.381 774.5,671.5C 756.747,691.992 735.747,707.992 711.5,719.5C 711.167,719.5 710.833,719.5 710.5,719.5C 729.849,696.147 748.849,672.48 767.5,648.5C 774.247,636.461 780.247,624.128 785.5,611.5C 788.803,607.534 790.469,602.867 790.5,597.5C 795.9,578.751 800.566,559.751 804.5,540.5C 805.657,537.727 806.324,534.727 806.5,531.5C 807.234,530.292 807.567,528.959 807.5,527.5C 809.575,523.525 810.575,519.192 810.5,514.5C 814.046,506.583 816.546,498.25 818,489.5C 818.994,484.882 819.494,480.215 819.5,475.5C 819.283,472.579 819.949,469.913 821.5,467.5C 829.461,461.178 837.461,454.844 845.5,448.5 Z"/></g>
<g><path style="opacity:1" fill="#114922" d="M 397.5,451.5 C 395.605,453.241 393.272,454.241 390.5,454.5C 392.395,452.759 394.728,451.759 397.5,451.5 Z"/></g>
<g><path style="opacity:1" fill="#0f6938" d="M 460.5,453.5 C 460.517,457.78 458.851,461.113 455.5,463.5C 457.184,460.132 458.85,456.799 460.5,453.5 Z"/></g>
<g><path style="opacity:1" fill="#33452d" d="M 845.5,450.5 C 846.089,454.971 845.423,458.971 843.5,462.5C 843.344,458.236 844.011,454.236 845.5,450.5 Z"/></g>
<g><path style="opacity:1" fill="#0f4f26" d="M 382.5,457.5 C 380.605,459.241 378.272,460.241 375.5,460.5C 377.395,458.759 379.728,457.759 382.5,457.5 Z"/></g>
<g><path style="opacity:1" fill="#556c52" d="M 843.5,464.5 C 842.658,469.649 841.658,474.649 840.5,479.5C 839.982,474.061 840.982,469.061 843.5,464.5 Z"/></g>
<g><path style="opacity:1" fill="#104a23" d="M 331.5,477.5 C 329.066,479.874 326.066,481.208 322.5,481.5C 325.23,479.723 328.23,478.389 331.5,477.5 Z"/></g>
<g><path style="opacity:1" fill="#5b7358" d="M 840.5,479.5 C 840.59,482.152 839.924,484.485 838.5,486.5C 838.41,483.848 839.076,481.515 840.5,479.5 Z"/></g>
<g><path style="opacity:1" fill="#09a963" d="M 154.5,484.5 C 157.123,486.265 160.123,486.932 163.5,486.5C 190.477,499.823 217.477,513.489 244.5,527.5C 240.582,534.727 236.748,542.061 233,549.5C 231.207,556.547 229.207,563.547 227,570.5C 226.056,577.162 225.223,583.829 224.5,590.5C 223.512,595.64 223.179,600.974 223.5,606.5C 211.5,606.5 199.5,606.5 187.5,606.5C 181.669,605.585 175.669,604.918 169.5,604.5C 146.727,600.634 125.394,593.134 105.5,582C 88.9676,569.987 75.9676,555.153 66.5,537.5C 71.9809,524.046 79.3143,511.713 88.5,500.5C 92.8429,498.351 96.8429,495.518 100.5,492C 104.5,490 108.5,488 112.5,486C 114.473,485.505 116.473,485.338 118.5,485.5C 121.727,485.324 124.727,484.657 127.5,483.5C 136.413,482.159 145.413,482.492 154.5,484.5 Z"/></g>
<g><path style="opacity:1" fill="#bbf6b6" d="M 819.5,475.5 C 819.494,480.215 818.994,484.882 818,489.5C 816.546,498.25 814.046,506.583 810.5,514.5C 812.422,501.153 815.422,488.153 819.5,475.5 Z"/></g>
<g><path style="opacity:1" fill="#0d6837" d="M 127.5,483.5 C 124.727,484.657 121.727,485.324 118.5,485.5C 121.171,483.882 124.171,483.215 127.5,483.5 Z"/></g>
<g><path style="opacity:1" fill="#245d35" d="M 154.5,484.5 C 159.324,484.992 163.99,485.659 168.5,486.5C 166.833,486.5 165.167,486.5 163.5,486.5C 160.123,486.932 157.123,486.265 154.5,484.5 Z"/></g>
<g><path style="opacity:1" fill="#c2f2d4" d="M 163.5,486.5 C 165.167,486.5 166.833,486.5 168.5,486.5C 170.607,487.468 172.941,487.802 175.5,487.5C 178.507,489.175 181.84,489.841 185.5,489.5C 190.703,490.429 195.703,492.096 200.5,494.5C 216.815,501.82 233.148,509.486 249.5,517.5C 250.429,518.689 250.762,520.022 250.5,521.5C 250.719,522.675 250.386,523.675 249.5,524.5C 248.305,526.297 246.638,527.297 244.5,527.5C 217.477,513.489 190.477,499.823 163.5,486.5 Z"/></g>
<g><path style="opacity:1" fill="#678267" d="M 175.5,487.5 C 179.078,487.549 182.411,488.215 185.5,489.5C 181.84,489.841 178.507,489.175 175.5,487.5 Z"/></g>
<g><path style="opacity:1" fill="#50674d" d="M 838.5,486.5 C 838.665,490.182 838.499,493.848 838,497.5C 836.308,500.74 835.141,504.073 834.5,507.5C 835.467,500.314 836.8,493.314 838.5,486.5 Z"/></g>
<g><path style="opacity:1" fill="#55d24e" d="M 524.5,498.5 C 523.301,502.37 521.635,506.036 519.5,509.5C 519.043,510.298 518.376,510.631 517.5,510.5C 519.071,505.958 521.404,501.958 524.5,498.5 Z"/></g>
<g><path style="opacity:1" fill="#0e6837" d="M 375.5,504.5 C 373.584,506.977 370.917,507.977 367.5,507.5C 370.076,506.512 372.743,505.512 375.5,504.5 Z"/></g>
<g><path style="opacity:1" fill="#556d52" d="M 834.5,509.5 C 834.741,511.898 834.074,513.898 832.5,515.5C 832.259,513.102 832.926,511.102 834.5,509.5 Z"/></g>
<g><path style="opacity:1" fill="#c1f1d2" d="M 937.5,596.5 C 937.611,609.848 937.277,623.181 936.5,636.5C 936.5,637.167 936.5,637.833 936.5,638.5C 935.5,640.5 934.5,642.5 933.5,644.5C 934.702,615.424 929.202,587.757 917,561.5C 913.213,556.044 909.046,550.877 904.5,546C 893.604,537.592 882.604,529.425 871.5,521.5C 871.227,514.63 874.227,512.797 880.5,516C 895.163,524.663 907.997,535.496 919,548.5C 928.572,563.203 934.738,579.203 937.5,596.5 Z"/></g>
<g><path style="opacity:1" fill="#114c26" d="M 962.5,518.5 C 965.984,517.835 969.651,517.501 973.5,517.5C 980.059,517.411 986.392,518.077 992.5,519.5C 982.506,519.01 972.506,518.677 962.5,518.5 Z"/></g>
<g><path style="opacity:1" fill="#139e60" d="M 962.5,518.5 C 972.506,518.677 982.506,519.01 992.5,519.5C 1001.23,521.201 1009.56,524.034 1017.5,528C 1030.26,534.482 1040.76,543.648 1049,555.5C 1051.45,560.426 1053.62,565.426 1055.5,570.5C 1055.66,571.873 1055.49,573.207 1055,574.5C 1035.52,599.5 1010.35,608.166 979.5,600.5C 979.5,600.167 979.5,599.833 979.5,599.5C 979.666,595.154 979.499,590.821 979,586.5C 978.722,585.584 978.222,584.918 977.5,584.5C 975.349,573.055 972.016,562.055 967.5,551.5C 981.994,550.743 994.66,554.909 1005.5,564C 1009.83,569.667 1014.17,575.333 1018.5,581C 1029.15,583.176 1034.82,578.842 1035.5,568C 1035.01,562.165 1032.67,557.165 1028.5,553C 1007.94,535.239 984.275,528.739 957.5,533.5C 955.852,532.223 954.018,531.223 952,530.5C 951.361,527.888 950.194,525.554 948.5,523.5C 949.174,520.334 951.174,518.834 954.5,519C 957.146,518.503 959.813,518.336 962.5,518.5 Z"/></g>
<g><path style="opacity:1" fill="#b9f6b4" d="M 810.5,514.5 C 810.575,519.192 809.575,523.525 807.5,527.5C 807.511,522.83 808.511,518.497 810.5,514.5 Z"/></g>
<g><path style="opacity:1" fill="#08a963" d="M 871.5,521.5 C 882.604,529.425 893.604,537.592 904.5,546C 909.046,550.877 913.213,556.044 917,561.5C 929.202,587.757 934.702,615.424 933.5,644.5C 933.605,648.548 933.272,652.548 932.5,656.5C 929.515,666.459 926.515,676.459 923.5,686.5C 921.926,688.102 921.259,690.102 921.5,692.5C 914.634,704.718 907.301,716.718 899.5,728.5C 897.532,736.433 896.865,744.766 897.5,753.5C 893.302,761.775 889.969,770.442 887.5,779.5C 884.643,785.083 882.977,791.083 882.5,797.5C 882.167,799.5 881.833,801.5 881.5,803.5C 880.778,803.918 880.278,804.584 880,805.5C 879.501,809.821 879.334,814.154 879.5,818.5C 878.732,819.263 878.232,820.263 878,821.5C 876.79,843.51 879.29,865.01 885.5,886C 883.123,899.704 875.123,905.037 861.5,902C 857.493,898.998 854.659,895.165 853,890.5C 852.176,881.324 852.343,872.324 853.5,863.5C 855.033,848.023 856.033,832.356 856.5,816.5C 856.499,812.651 856.165,808.984 855.5,805.5C 852.926,801.288 849.092,798.955 844,798.5C 827.949,804.591 819.782,816.257 819.5,833.5C 818.113,835.877 817.279,838.543 817,841.5C 816.333,861.833 816.333,882.167 817,902.5C 817.232,903.737 817.732,904.737 818.5,905.5C 818.5,906.5 818.5,907.5 818.5,908.5C 819.644,916.558 819.644,924.558 818.5,932.5C 809.401,942.655 799.901,942.988 790,933.5C 789.79,931.942 789.29,930.609 788.5,929.5C 788.5,920.5 788.5,911.5 788.5,902.5C 788.183,898.298 788.517,894.298 789.5,890.5C 790.495,878.672 791.162,866.672 791.5,854.5C 791.179,849.305 791.513,844.305 792.5,839.5C 793.323,830.167 793.99,820.667 794.5,811C 794.494,808.967 794.161,807.134 793.5,805.5C 791.006,801.067 787.172,799.4 782,800.5C 779.5,800.667 777,800.833 774.5,801C 769.487,804.349 765.487,808.682 762.5,814C 759.85,821.448 757.516,828.948 755.5,836.5C 753.75,840.183 753.083,844.183 753.5,848.5C 752.539,850.265 752.205,852.265 752.5,854.5C 751.691,856.292 751.191,858.292 751,860.5C 750.5,870.494 750.334,880.494 750.5,890.5C 745.937,900.882 737.937,904.715 726.5,902C 717.232,896.951 713.732,889.118 716,878.5C 716.721,874.658 718.387,871.324 721,868.5C 723.669,860.8 726.169,853.134 728.5,845.5C 730.163,843.562 730.829,841.228 730.5,838.5C 734.109,825.889 737.443,813.222 740.5,800.5C 742.223,798.22 742.889,795.553 742.5,792.5C 748.292,764.569 762.959,742.736 786.5,727C 795.829,721.62 805.496,717.12 815.5,713.5C 845.176,677.597 868.009,637.597 884,593.5C 885.517,582.544 885.85,571.544 885,560.5C 882.421,554.622 877.921,551.289 871.5,550.5C 869.76,547.588 868.427,544.588 867.5,541.5C 868.807,534.92 870.141,528.253 871.5,521.5 Z"/></g>
<g><path style="opacity:1" fill="#5f785d" d="M 830.5,525.5 C 830.324,528.727 829.657,531.727 828.5,534.5C 828.215,531.171 828.882,528.171 830.5,525.5 Z"/></g>
<g><path style="opacity:1" fill="#c7f6d8" d="M 967.5,551.5 C 964.798,546.269 961.632,541.269 958,536.5C 957.517,535.552 957.351,534.552 957.5,533.5C 984.275,528.739 1007.94,535.239 1028.5,553C 1032.67,557.165 1035.01,562.165 1035.5,568C 1034.82,578.842 1029.15,583.176 1018.5,581C 1014.17,575.333 1009.83,569.667 1005.5,564C 994.66,554.909 981.994,550.743 967.5,551.5 Z"/></g>
<g><path style="opacity:1" fill="#adf49a" d="M 806.5,531.5 C 806.324,534.727 805.657,537.727 804.5,540.5C 804.215,537.171 804.882,534.171 806.5,531.5 Z"/></g>
<g><path style="opacity:1" fill="#048045" d="M 494.5,558.5 C 490.868,561.984 489.535,566.317 490.5,571.5C 489.521,568.375 489.187,565.042 489.5,561.5C 487.034,560.366 484.367,560.199 481.5,561C 480.944,561.383 480.611,561.883 480.5,562.5C 458.185,571.989 435.852,581.489 413.5,591C 412.833,591.667 412.167,592.333 411.5,593C 405.194,595.324 398.861,597.491 392.5,599.5C 392.5,600.5 392.5,601.5 392.5,602.5C 387.184,599.528 381.85,596.528 376.5,593.5C 374.294,589.445 371.794,585.445 369,581.5C 366.012,575.242 367.512,570.409 373.5,567C 387.515,562.536 401.515,558.203 415.5,554C 425.448,549.539 435.782,545.872 446.5,543C 462.362,532.864 474.362,536.197 482.5,553C 486.751,554.631 490.751,556.464 494.5,558.5 Z"/></g>
<g><path style="opacity:1" fill="#026662" d="M 66.5,537.5 C 75.9676,555.153 88.9676,569.987 105.5,582C 125.394,593.134 146.727,600.634 169.5,604.5C 170.263,605.268 171.263,605.768 172.5,606C 177.489,606.499 182.489,606.666 187.5,606.5C 199.5,606.5 211.5,606.5 223.5,606.5C 223.179,600.974 223.512,595.64 224.5,590.5C 224.248,621.517 230.582,651.017 243.5,679C 243.241,680.261 242.574,681.261 241.5,682C 227.5,682.667 213.5,682.667 199.5,682C 179.076,680.515 158.909,677.349 139,672.5C 118.677,665.838 101.177,654.838 86.5,639.5C 68.3232,616.502 60.4899,590.169 63,560.5C 63.8946,552.651 65.0612,544.985 66.5,537.5 Z"/></g>
<g><path style="opacity:1" fill="#566e54" d="M 828.5,536.5 C 827.492,540.596 826.492,544.596 825.5,548.5C 825.034,544.018 826.034,540.018 828.5,536.5 Z"/></g>
<g><path style="opacity:1" fill="#026561" d="M 867.5,541.5 C 868.427,544.588 869.76,547.588 871.5,550.5C 877.921,551.289 882.421,554.622 885,560.5C 885.85,571.544 885.517,582.544 884,593.5C 868.009,637.597 845.176,677.597 815.5,713.5C 815.567,712.041 815.234,710.708 814.5,709.5C 814.498,704.979 814.164,700.479 813.5,696C 813.965,691.118 815.298,686.618 817.5,682.5C 826.999,662.51 836.499,642.51 846,622.5C 849.979,609.864 853.979,597.197 858,584.5C 861.651,570.234 864.818,555.901 867.5,541.5 Z"/></g>
<g><path style="opacity:1" fill="#5d755b" d="M 825.5,548.5 C 824.66,552.985 823.66,557.319 822.5,561.5C 822.124,556.739 823.124,552.405 825.5,548.5 Z"/></g>
<g><path style="opacity:1" fill="#026762" d="M 277.5,551.5 C 304.538,618.899 345.371,676.566 400,724.5C 400.828,728.871 400.661,733.205 399.5,737.5C 395.939,741.755 392.439,746.088 389,750.5C 388.209,751.745 387.709,753.078 387.5,754.5C 362.883,739.386 339.216,722.886 316.5,705C 269.765,662.44 256.765,611.273 277.5,551.5 Z"/></g>
<g><path style="opacity:1" fill="#0c461f" d="M 489.5,561.5 C 486.43,561.368 483.43,561.701 480.5,562.5C 480.611,561.883 480.944,561.383 481.5,561C 484.367,560.199 487.034,560.366 489.5,561.5 Z"/></g>
<g><path style="opacity:1" fill="#627b61" d="M 822.5,561.5 C 821.868,565.702 820.868,569.702 819.5,573.5C 819.308,569.098 820.308,565.098 822.5,561.5 Z"/></g>
<g><path style="opacity:1" fill="#026662" d="M 1055.5,570.5 C 1066.8,615.708 1052.13,649.208 1011.5,671C 1001.15,675.003 990.486,678.003 979.5,680C 976.621,680.957 974.121,680.457 972,678.5C 971.496,672.853 972.496,667.52 975,662.5C 978.725,642.021 980.225,621.355 979.5,600.5C 1010.35,608.166 1035.52,599.5 1055,574.5C 1055.49,573.207 1055.66,571.873 1055.5,570.5 Z"/></g>
<g><path style="opacity:1" fill="#106a3b" d="M 977.5,584.5 C 978.222,584.918 978.722,585.584 979,586.5C 979.499,590.821 979.666,595.154 979.5,599.5C 978.6,594.668 977.934,589.668 977.5,584.5 Z"/></g>
<g><path style="opacity:1" fill="#539426" d="M 508.5,589.5 C 510.027,589.427 511.027,590.094 511.5,591.5C 509.973,591.573 508.973,590.906 508.5,589.5 Z"/></g>
<g><path style="opacity:1" fill="#4eba01" d="M 511.5,591.5 C 528.024,598.461 542.691,608.294 555.5,621C 587.293,642.427 622.627,653.593 661.5,654.5C 694.303,655.376 724.97,648.209 753.5,633C 758.01,631.42 762.51,631.254 767,632.5C 766.45,637.854 766.616,643.187 767.5,648.5C 748.849,672.48 729.849,696.147 710.5,719.5C 705.126,721.499 699.793,723.499 694.5,725.5C 692.265,725.205 690.265,725.539 688.5,726.5C 685.848,726.41 683.515,727.076 681.5,728.5C 673.263,729.269 665.263,730.602 657.5,732.5C 621.412,736.535 586.412,732.535 552.5,720.5C 551.07,719.463 549.403,718.796 547.5,718.5C 510.256,703.101 481.089,678.101 460,643.5C 459.292,642.619 458.458,641.953 457.5,641.5C 456.575,638.59 455.241,635.924 453.5,633.5C 453.5,632.833 453.167,632.5 452.5,632.5C 452.245,630.033 451.245,628.033 449.5,626.5C 448.201,624.847 448.534,623.347 450.5,622C 453.351,620.711 456.351,620.211 459.5,620.5C 462.152,620.59 464.485,619.924 466.5,618.5C 467.919,617.549 469.585,617.216 471.5,617.5C 475.162,617.277 478.495,616.277 481.5,614.5C 484.801,612.416 488.468,611.082 492.5,610.5C 494.698,610.125 496.698,609.458 498.5,608.5C 503.289,605.942 508.289,603.608 513.5,601.5C 513.833,600.333 514.167,599.167 514.5,598C 514.023,595.49 513.023,593.324 511.5,591.5 Z"/></g>
<g><path style="opacity:1" fill="#b8f6b2" d="M 790.5,597.5 C 790.469,602.867 788.803,607.534 785.5,611.5C 786.653,606.552 788.32,601.885 790.5,597.5 Z"/></g>
<g><path style="opacity:1" fill="#058563" d="M 169.5,604.5 C 175.669,604.918 181.669,605.585 187.5,606.5C 182.489,606.666 177.489,606.499 172.5,606C 171.263,605.768 170.263,605.268 169.5,604.5 Z"/></g>
<g><path style="opacity:1" fill="#306e02" d="M 498.5,608.5 C 496.698,609.458 494.698,610.125 492.5,610.5C 493.99,608.72 495.99,608.054 498.5,608.5 Z"/></g>
<g><path style="opacity:1" fill="#388202" d="M 481.5,614.5 C 478.495,616.277 475.162,617.277 471.5,617.5C 474.408,615.395 477.742,614.395 481.5,614.5 Z"/></g>
<g><path style="opacity:1" fill="#337602" d="M 466.5,618.5 C 464.485,619.924 462.152,620.59 459.5,620.5C 461.515,619.076 463.848,618.41 466.5,618.5 Z"/></g>
<g><path style="opacity:1" fill="#465b41" d="M 806.5,614.5 C 805.94,616.801 805.44,619.134 805,621.5C 804.292,622.381 803.458,623.047 802.5,623.5C 803.588,620.3 804.921,617.3 806.5,614.5 Z"/></g>
<g><path style="opacity:1" fill="#647d63" d="M 800.5,628.5 C 800.34,630.153 799.674,631.486 798.5,632.5C 798.229,630.62 798.896,629.287 800.5,628.5 Z"/></g>
<g><path style="opacity:1" fill="#6a866b" d="M 937.5,596.5 C 938.166,601.489 938.499,606.656 938.5,612C 938.64,620.384 937.974,628.551 936.5,636.5C 937.277,623.181 937.611,609.848 937.5,596.5 Z"/></g>
<g><path style="opacity:1" fill="#275503" d="M 449.5,626.5 C 451.245,628.033 452.245,630.033 452.5,632.5C 450.755,630.967 449.755,628.967 449.5,626.5 Z"/></g>
<g><path style="opacity:1" fill="#214505" d="M 453.5,633.5 C 455.241,635.924 456.575,638.59 457.5,641.5C 454.863,639.518 453.53,636.852 453.5,633.5 Z"/></g>
<g><path style="opacity:1" fill="#43573d" d="M 796.5,636.5 C 796.47,639.852 795.137,642.518 792.5,644.5C 793.425,641.59 794.759,638.924 796.5,636.5 Z"/></g>
<g><path style="opacity:1" fill="#466044" d="M 936.5,638.5 C 935.59,644.822 934.257,650.822 932.5,656.5C 933.272,652.548 933.605,648.548 933.5,644.5C 934.5,642.5 935.5,640.5 936.5,638.5 Z"/></g>
<g><path style="opacity:1" fill="#5e775c" d="M 777.5,667.5 C 776.878,669.122 775.878,670.455 774.5,671.5C 774.468,669.381 775.468,668.048 777.5,667.5 Z"/></g>
<g><path style="opacity:1" fill="#104822" d="M 923.5,686.5 C 923.741,688.898 923.074,690.898 921.5,692.5C 921.259,690.102 921.926,688.102 923.5,686.5 Z"/></g>
<g><path style="opacity:1" fill="#0a473b" d="M 817.5,682.5 C 815.298,686.618 813.965,691.118 813.5,696C 814.164,700.479 814.498,704.979 814.5,709.5C 813.707,705.09 812.707,700.59 811.5,696C 812.275,690.799 814.275,686.299 817.5,682.5 Z"/></g>
<g><path style="opacity:1" fill="#10713f" d="M 157.5,720.5 C 148.467,720.284 139.467,720.617 130.5,721.5C 131.263,720.732 132.263,720.232 133.5,720C 141.677,719.177 149.677,719.344 157.5,720.5 Z"/></g>
<g><path style="opacity:1" fill="#275403" d="M 547.5,718.5 C 549.403,718.796 551.07,719.463 552.5,720.5C 550.302,720.88 548.635,720.213 547.5,718.5 Z"/></g>
<g><path style="opacity:1" fill="#0f7945" d="M 1018.5,720.5 C 1010.09,720.454 1001.76,721.121 993.5,722.5C 1001.67,719.552 1010.01,718.885 1018.5,720.5 Z"/></g>
<g><path style="opacity:1" fill="#0e9d5e" d="M 157.5,720.5 C 179.439,722.64 201.439,723.64 223.5,723.5C 237.293,725.229 251.293,725.895 265.5,725.5C 268.243,726.388 270.91,727.555 273.5,729C 287.651,741.149 301.818,753.315 316,765.5C 320.075,773.615 318.241,780.115 310.5,785C 301.861,788.773 295.028,786.607 290,778.5C 287.47,771.662 285.47,764.662 284,757.5C 282.791,755.816 281.291,754.483 279.5,753.5C 275.019,752.352 270.352,752.185 265.5,753C 264.944,753.383 264.611,753.883 264.5,754.5C 262.83,754.751 261.33,755.418 260,756.5C 257.758,758.87 256.258,761.536 255.5,764.5C 254.883,764.611 254.383,764.944 254,765.5C 253.185,770.352 253.352,775.019 254.5,779.5C 261.091,798.18 266.925,817.18 272,836.5C 272.764,842.04 272.597,847.54 271.5,853C 266.603,860.938 259.603,864.938 250.5,865C 246.146,863.474 242.479,860.974 239.5,857.5C 236.843,840.611 235.343,823.611 235,806.5C 234,803.833 233,801.167 232,798.5C 226.558,792.623 220.891,786.956 215,781.5C 213.438,779.043 212.438,776.376 212,773.5C 211.667,768.5 211.333,763.5 211,758.5C 209.681,756.513 207.848,755.346 205.5,755C 188.958,752.713 180.624,759.879 180.5,776.5C 180.673,780.541 181.173,784.541 182,788.5C 185.083,798.753 188.75,808.753 193,818.5C 194.164,834.999 186.33,842.499 169.5,841C 166.124,839.95 163.124,838.45 160.5,836.5C 159.971,834.216 158.971,832.216 157.5,830.5C 157.477,824.288 156.81,818.288 155.5,812.5C 155.153,804.202 153.819,796.202 151.5,788.5C 152.018,783.073 151.018,778.073 148.5,773.5C 149.012,767.047 146.345,762.714 140.5,760.5C 137.041,759.135 133.708,759.469 130.5,761.5C 124.566,762.258 119.066,764.258 114,767.5C 104.628,774.295 96.1283,781.961 88.5,790.5C 72.4704,799.523 62.8037,794.856 59.5,776.5C 60.2101,773.411 61.2101,770.411 62.5,767.5C 76.755,752.533 92.755,739.7 110.5,729C 117.072,726.193 123.739,723.693 130.5,721.5C 139.467,720.617 148.467,720.284 157.5,720.5 Z"/></g>
<g><path style="opacity:1" fill="#0e9d5e" d="M 1018.5,720.5 C 1046.1,731.225 1071.27,746.225 1094,765.5C 1099.47,776.763 1097.3,786.263 1087.5,794C 1082.83,796 1078.17,796 1073.5,794C 1066.28,787.573 1059.28,780.906 1052.5,774C 1046.26,769.257 1039.59,765.257 1032.5,762C 1022.81,757.093 1015.47,759.259 1010.5,768.5C 1008.78,770.78 1008.11,773.447 1008.5,776.5C 1008.57,777.959 1008.23,779.292 1007.5,780.5C 1005.78,783.845 1005.12,787.511 1005.5,791.5C 1004.54,793.265 1004.21,795.265 1004.5,797.5C 1003.73,798.263 1003.23,799.263 1003,800.5C 1002.5,806.507 1002,812.507 1001.5,818.5C 1000.39,823.985 998.56,829.318 996,834.5C 988.316,842.106 979.816,843.272 970.5,838C 967.8,836.143 966.134,833.643 965.5,830.5C 965.5,826.5 965.5,822.5 965.5,818.5C 970.116,808.746 973.949,798.746 977,788.5C 980.998,771.946 975.498,759.946 960.5,752.5C 959.385,750.693 958.719,748.693 958.5,746.5C 959.398,740.48 961.232,734.814 964,729.5C 967.597,727.265 971.43,725.931 975.5,725.5C 981.155,723.224 987.155,722.224 993.5,722.5C 1001.76,721.121 1010.09,720.454 1018.5,720.5 Z"/></g>
<g><path style="opacity:1" fill="#204108" d="M 710.5,719.5 C 710.833,719.5 711.167,719.5 711.5,719.5C 711.047,720.458 710.381,721.292 709.5,722C 704.469,723.17 699.469,724.337 694.5,725.5C 699.793,723.499 705.126,721.499 710.5,719.5 Z"/></g>
<g><path style="opacity:1" fill="#0f7945" d="M 223.5,723.5 C 237.686,723.509 251.686,724.176 265.5,725.5C 251.293,725.895 237.293,725.229 223.5,723.5 Z"/></g>
<g><path style="opacity:1" fill="#244f04" d="M 688.5,726.5 C 686.485,727.924 684.152,728.59 681.5,728.5C 683.515,727.076 685.848,726.41 688.5,726.5 Z"/></g>
<g><path style="opacity:1" fill="#057c42" d="M 975.5,725.5 C 971.43,725.931 967.597,727.265 964,729.5C 961.232,734.814 959.398,740.48 958.5,746.5C 958.719,748.693 959.385,750.693 960.5,752.5C 953.451,753.282 946.784,752.115 940.5,749C 939.325,746.162 939.491,743.329 941,740.5C 946.395,731.719 954.228,726.886 964.5,726C 968.152,725.501 971.818,725.335 975.5,725.5 Z"/></g>
<g><path style="opacity:1" fill="#234a03" d="M 681.5,728.5 C 673.776,730.835 665.776,732.168 657.5,732.5C 665.263,730.602 673.263,729.269 681.5,728.5 Z"/></g>
<g><path style="opacity:1" fill="#0e4c24" d="M 899.5,728.5 C 898.861,736.933 898.194,745.266 897.5,753.5C 896.865,744.766 897.532,736.433 899.5,728.5 Z"/></g>
<g><path style="opacity:1" fill="#104520" d="M 279.5,753.5 C 274.438,753.274 269.438,753.608 264.5,754.5C 264.611,753.883 264.944,753.383 265.5,753C 270.352,752.185 275.019,752.352 279.5,753.5 Z"/></g>
<g><path style="opacity:1" fill="#0d7942" d="M 520.5,751.5 C 522.532,752.048 523.532,753.381 523.5,755.5C 524.5,755.5 525.5,755.5 526.5,755.5C 527.206,757.672 528.206,759.672 529.5,761.5C 527.107,760.647 525.774,758.981 525.5,756.5C 524.5,756.5 523.5,756.5 522.5,756.5C 522.169,754.678 521.502,753.011 520.5,751.5 Z"/></g>
<g><path style="opacity:1" fill="#11542b" d="M 140.5,760.5 C 137.14,760.616 133.807,760.949 130.5,761.5C 133.708,759.469 137.041,759.135 140.5,760.5 Z"/></g>
<g><path style="opacity:1" fill="#05773f" d="M 940.5,764.5 C 941.822,764.33 942.989,764.663 944,765.5C 944.759,771.065 943.926,776.398 941.5,781.5C 940.158,782.876 938.825,784.209 937.5,785.5C 936.833,785.167 936.167,784.833 935.5,784.5C 933.624,776.928 935.29,770.261 940.5,764.5 Z"/></g>
<g><path style="opacity:1" fill="#114e27" d="M 1010.5,768.5 C 1010.43,771.428 1009.77,774.095 1008.5,776.5C 1008.11,773.447 1008.78,770.78 1010.5,768.5 Z"/></g>
<g><path style="opacity:1" fill="#113f1c" d="M 148.5,773.5 C 151.018,778.073 152.018,783.073 151.5,788.5C 150.588,783.603 149.588,778.603 148.5,773.5 Z"/></g>
<g><path style="opacity:1" fill="#106b3b" d="M 255.5,764.5 C 254.671,769.453 254.337,774.453 254.5,779.5C 253.352,775.019 253.185,770.352 254,765.5C 254.383,764.944 254.883,764.611 255.5,764.5 Z"/></g>
<g><path style="opacity:1" fill="#114a24" d="M 1007.5,780.5 C 1007.35,784.387 1006.69,788.054 1005.5,791.5C 1005.12,787.511 1005.78,783.845 1007.5,780.5 Z"/></g>
<g><path style="opacity:1" fill="#104822" d="M 887.5,779.5 C 886.355,785.748 884.688,791.748 882.5,797.5C 882.977,791.083 884.643,785.083 887.5,779.5 Z"/></g>
<g><path style="opacity:0.985" fill="#3c4431" d="M 363.5,794.5 C 360.214,793.793 356.881,793.46 353.5,793.5C 354.172,791.332 355.672,789.999 358,789.5C 361.061,789.929 362.894,791.595 363.5,794.5 Z"/></g>
<g><path style="opacity:1" fill="#0e582d" d="M 742.5,792.5 C 742.889,795.553 742.223,798.22 740.5,800.5C 740.802,797.627 741.469,794.961 742.5,792.5 Z"/></g>
<g><path style="opacity:1" fill="#0f4922" d="M 450.5,800.5 C 445.7,800.35 441.033,801.016 436.5,802.5C 437.681,800.933 439.347,800.099 441.5,800C 444.696,799.195 447.696,799.362 450.5,800.5 Z"/></g>
<g><path style="opacity:1" fill="#0c6f3c" d="M 544.5,791.5 C 547.018,796.073 548.018,801.073 547.5,806.5C 546.588,801.603 545.588,796.603 544.5,791.5 Z"/></g>
<g><path style="opacity:1" fill="#104823" d="M 1004.5,797.5 C 1003.86,803.477 1003.36,809.477 1003,815.5C 1002.77,816.737 1002.27,817.737 1001.5,818.5C 1002,812.507 1002.5,806.507 1003,800.5C 1003.23,799.263 1003.73,798.263 1004.5,797.5 Z"/></g>
<g><path style="opacity:1" fill="#0d6b39" d="M 855.5,805.5 C 856.165,808.984 856.499,812.651 856.5,816.5C 856.033,832.356 855.033,848.023 853.5,863.5C 854.198,844.168 854.865,824.834 855.5,805.5 Z"/></g>
<g><path style="opacity:1" fill="#0e5228" d="M 881.5,803.5 C 880.994,808.654 880.327,813.654 879.5,818.5C 879.334,814.154 879.501,809.821 880,805.5C 880.278,804.584 880.778,803.918 881.5,803.5 Z"/></g>
<g><path style="opacity:1" fill="#0d6836" d="M 497.5,803.5 C 496.514,814.463 496.514,825.463 497.5,836.5C 495.603,826.049 495.103,815.382 496,804.5C 496.383,803.944 496.883,803.611 497.5,803.5 Z"/></g>
<g><path style="opacity:1" fill="#0d703c" d="M 433.5,806.5 C 434.46,814.808 435.127,823.141 435.5,831.5C 434.037,824.877 433.037,818.044 432.5,811C 432.508,809.293 432.842,807.793 433.5,806.5 Z"/></g>
<g><path style="opacity:1" fill="#0d6736" d="M 793.5,805.5 C 794.161,807.134 794.494,808.967 794.5,811C 793.99,820.667 793.323,830.167 792.5,839.5C 792.34,828.146 792.674,816.813 793.5,805.5 Z"/></g>
<g><path style="opacity:1" fill="#10713f" d="M 965.5,818.5 C 965.5,822.5 965.5,826.5 965.5,830.5C 962.833,826.5 962.833,822.5 965.5,818.5 Z"/></g>
<g><path style="opacity:1" fill="#10401d" d="M 155.5,812.5 C 156.81,818.288 157.477,824.288 157.5,830.5C 156.054,824.726 155.388,818.726 155.5,812.5 Z"/></g>
<g><path style="opacity:1" fill="#0e562c" d="M 470.5,830.5 C 472.25,834.183 472.917,838.183 472.5,842.5C 471.383,838.705 470.717,834.705 470.5,830.5 Z"/></g>
<g><path style="opacity:1" fill="#0f542a" d="M 533.5,833.5 C 535.25,837.183 535.917,841.183 535.5,845.5C 534.383,841.705 533.717,837.705 533.5,833.5 Z"/></g>
<g><path style="opacity:1" fill="#0e592d" d="M 730.5,838.5 C 730.829,841.228 730.163,843.562 728.5,845.5C 728.721,842.933 729.388,840.599 730.5,838.5 Z"/></g>
<g><path style="opacity:0.992" fill="#3e4533" d="M 930.5,844.5 C 925.85,844.414 921.517,845.414 917.5,847.5C 918.08,840.749 921.747,838.083 928.5,839.5C 928.392,841.514 929.058,843.18 930.5,844.5 Z"/></g>
<g><path style="opacity:1" fill="#0f5429" d="M 755.5,836.5 C 755.283,840.705 754.617,844.705 753.5,848.5C 753.083,844.183 753.75,840.183 755.5,836.5 Z"/></g>
<g><path style="opacity:1" fill="#0d6535" d="M 497.5,836.5 C 499.207,846.279 499.873,856.279 499.5,866.5C 498.455,856.677 497.788,846.677 497.5,836.5 Z"/></g>
<g><path style="opacity:1" fill="#0e5c2f" d="M 472.5,842.5 C 474.118,845.171 474.785,848.171 474.5,851.5C 472.882,848.829 472.215,845.829 472.5,842.5 Z"/></g>
<g><path style="opacity:1" fill="#0f4e26" d="M 535.5,845.5 C 537.118,848.171 537.785,851.171 537.5,854.5C 536.087,851.781 535.42,848.781 535.5,845.5 Z"/></g>
<g><path style="opacity:1" fill="#0e6736" d="M 436.5,854.5 C 437.936,860.947 438.603,867.614 438.5,874.5C 436.961,868.063 436.294,861.396 436.5,854.5 Z"/></g>
<g><path style="opacity:1" fill="#0d5a2d" d="M 752.5,854.5 C 752.052,866.666 751.386,878.666 750.5,890.5C 750.334,880.494 750.5,870.494 751,860.5C 751.191,858.292 751.691,856.292 752.5,854.5 Z"/></g>
<g><path style="opacity:1" fill="#0d6635" d="M 791.5,854.5 C 791.162,866.672 790.495,878.672 789.5,890.5C 789.061,878.283 789.727,866.283 791.5,854.5 Z"/></g>
<g><path style="opacity:1" fill="#0e5f30" d="M 499.5,866.5 C 500.936,872.947 501.603,879.614 501.5,886.5C 499.961,880.063 499.294,873.396 499.5,866.5 Z"/></g>
<g><path style="opacity:1" fill="#0f441f" d="M 819.5,833.5 C 817.203,857.432 816.87,881.432 818.5,905.5C 817.732,904.737 817.232,903.737 817,902.5C 816.333,882.167 816.333,861.833 817,841.5C 817.279,838.543 818.113,835.877 819.5,833.5 Z"/></g>
<g><path style="opacity:1" fill="#0e5a2e" d="M 407.5,872.5 C 407.283,876.705 406.617,880.705 405.5,884.5C 405.083,880.183 405.75,876.183 407.5,872.5 Z"/></g>
<g><path style="opacity:1" fill="#0c6837" d="M 572.5,875.5 C 573.991,878.186 574.657,881.186 574.5,884.5C 574.495,886.696 574.162,888.696 573.5,890.5C 573.587,885.463 573.254,880.463 572.5,875.5 Z"/></g>
<g><path style="opacity:1" fill="#0e5b2f" d="M 473.5,896.5 C 473.724,902.739 473.057,908.739 471.5,914.5C 471.184,908.25 471.85,902.25 473.5,896.5 Z"/></g>
<g><path style="opacity:1" fill="#0e5a2d" d="M 818.5,908.5 C 819.268,909.263 819.768,910.263 820,911.5C 820.167,915 820.333,918.5 820.5,922C 820.488,925.902 819.821,929.402 818.5,932.5C 819.644,924.558 819.644,916.558 818.5,908.5 Z"/></g>
<g><path style="opacity:1" fill="#0e6e3c" d="M 788.5,902.5 C 788.5,911.5 788.5,920.5 788.5,929.5C 787.009,926.814 786.343,923.814 786.5,920.5C 786.845,914.315 787.511,908.315 788.5,902.5 Z"/></g>
<g><path style="opacity:1" fill="#0e723e" d="M 502.5,908.5 C 503.484,912.809 504.151,917.309 504.5,922C 504.592,924.821 503.926,927.321 502.5,929.5C 502.5,922.5 502.5,915.5 502.5,908.5 Z"/></g>
</g>
</svg>
